<svg width="137" height="49" viewBox="0 0 137 49" fill="none" xmlns="http://www.w3.org/2000/svg">
<path d="M43.7655 1.06789V0.74989L43.2355 0.537889C41.2215 0.74989 38.6775 1.91589 35.3915 4.35389C30.5155 7.95789 29.7735 8.48789 26.9115 12.9399C24.7915 17.9219 26.0635 15.3779 24.5795 20.9959L24.1555 22.5859L22.7775 28.7339C20.6575 38.2739 18.0075 41.5599 12.8135 44.7399L10.6935 44.9519L10.3755 44.8459L10.2695 44.4219L11.3295 40.8179L12.2835 39.4399C13.7675 38.6979 15.2515 37.7439 15.2515 37.0019C15.2515 36.4719 14.6155 35.9419 12.9195 35.6239C10.1635 36.1539 9.20947 37.1079 6.77147 38.3799L4.43947 39.6519C3.90946 39.9699 0.835465 41.5599 0.835465 42.1959C0.835465 42.3019 1.04746 42.4079 1.47146 42.4079C4.86346 40.6059 5.18146 40.3939 7.19547 39.8639C7.72546 40.3939 7.93747 40.9239 7.93747 41.4539C7.93747 42.4079 7.08946 43.4679 6.66547 44.8459C6.34746 45.4819 6.34746 46.0119 6.34746 46.4359C6.34746 47.4959 6.77147 47.9199 7.19547 47.9199C11.3295 47.9199 15.0395 45.3759 18.3255 43.0439C23.0955 37.8499 26.0635 32.9739 28.5015 26.9319L29.1375 25.3419V23.6459L29.5615 22.2679L30.6215 16.7559C30.9395 12.4099 31.6815 11.4559 33.6955 7.74589C37.6175 3.61189 39.8435 2.33989 42.9175 1.80989L43.7655 1.06789ZM65.5037 1.06789V0.74989L64.9737 0.537889C62.9597 0.74989 60.4157 1.91589 57.1297 4.35389C52.2537 7.95789 51.5117 8.48789 48.6497 12.9399C46.5297 17.9219 47.8017 15.3779 46.3177 20.9959L45.8937 22.5859L44.5157 28.7339C42.3957 38.2739 39.7457 41.5599 34.5517 44.7399L32.4317 44.9519L32.1137 44.8459L32.0077 44.4219L33.0677 40.8179L34.0217 39.4399C35.5057 38.6979 36.9897 37.7439 36.9897 37.0019C36.9897 36.4719 36.3537 35.9419 34.6577 35.6239C31.9017 36.1539 30.9477 37.1079 28.5097 38.3799L26.1777 39.6519C25.6477 39.9699 22.5737 41.5599 22.5737 42.1959C22.5737 42.3019 22.7857 42.4079 23.2097 42.4079C26.6017 40.6059 26.9197 40.3939 28.9337 39.8639C29.4637 40.3939 29.6757 40.9239 29.6757 41.4539C29.6757 42.4079 28.8277 43.4679 28.4037 44.8459C28.0857 45.4819 28.0857 46.0119 28.0857 46.4359C28.0857 47.4959 28.5097 47.9199 28.9337 47.9199C33.0677 47.9199 36.7777 45.3759 40.0637 43.0439C44.8337 37.8499 47.8017 32.9739 50.2397 26.9319L50.8757 25.3419V23.6459L51.2997 22.2679L52.3597 16.7559C52.6777 12.4099 53.4197 11.4559 55.4337 7.74589C59.3557 3.61189 61.5817 2.33989 64.6557 1.80989L65.5037 1.06789ZM51.1209 45.2699C50.6969 44.5279 51.6509 43.6799 52.1809 43.4679L54.0889 42.0899C57.3749 39.6519 58.6469 37.8499 58.6469 34.6699C57.4809 33.1859 55.8909 34.5639 54.6189 35.3059C50.8029 37.6379 47.4109 40.6059 46.0329 45.2699C46.1389 47.2839 46.1389 47.9199 48.0469 48.4499C52.8169 48.2379 55.8909 46.8599 59.6009 43.9979L60.8729 43.0439C62.1449 42.3019 63.2049 41.2419 63.2049 40.9239L63.0989 40.8179C62.8869 40.8179 62.1449 41.1359 60.9789 41.8779C56.1029 45.0579 55.5729 45.0579 52.0749 45.5879L51.1209 45.2699ZM50.4849 43.2559L50.2729 41.5599C50.8029 40.2879 51.5449 39.2279 52.4989 38.3799C53.5589 37.5319 54.5129 37.1079 55.0429 37.1079C55.8909 37.1079 56.1029 37.6379 55.6789 38.4859C54.0889 40.4999 52.8169 41.8779 50.8029 43.3619H50.6969L50.4849 43.2559ZM68.822 45.2699C68.398 44.5279 69.352 43.6799 69.882 43.4679L71.79 42.0899C75.076 39.6519 76.348 37.8499 76.348 34.6699C75.182 33.1859 73.592 34.5639 72.32 35.3059C68.504 37.6379 65.112 40.6059 63.734 45.2699C63.84 47.2839 63.84 47.9199 65.748 48.4499C70.518 48.2379 73.592 46.8599 77.302 43.9979L78.574 43.0439C79.846 42.3019 80.906 41.2419 80.906 40.9239L80.8 40.8179C80.588 40.8179 79.846 41.1359 78.68 41.8779C73.804 45.0579 73.274 45.0579 69.776 45.5879L68.822 45.2699ZM68.186 43.2559L67.974 41.5599C68.504 40.2879 69.246 39.2279 70.2 38.3799C71.26 37.5319 72.214 37.1079 72.744 37.1079C73.592 37.1079 73.804 37.6379 73.38 38.4859C71.79 40.4999 70.518 41.8779 68.504 43.3619H68.398L68.186 43.2559ZM96.2752 44.4219C96.0632 45.2699 95.7452 45.9059 95.7452 46.4359C95.7452 46.9659 95.9572 47.3899 96.6992 47.9199C100.409 47.8139 103.165 45.7999 106.663 43.2559C107.723 42.5139 108.889 41.3479 108.889 40.9239L108.677 40.8179C108.465 40.8179 107.723 41.1359 106.451 41.8779C102.953 43.8919 102.317 44.4219 101.681 44.6339C101.363 44.6339 101.045 44.6339 100.409 44.7399C100.197 44.5279 100.091 44.2099 100.091 43.8919C100.091 42.9379 101.151 41.6659 101.787 40.8179C102.211 39.7579 103.165 38.1679 103.165 36.7899C103.165 36.1539 103.059 35.7299 102.635 35.1999C99.7732 35.1999 96.8052 37.2139 94.5792 39.0159L90.9752 41.9839L90.7632 41.7719L91.2932 40.4999C91.5052 39.7579 92.5652 37.7439 92.5652 36.2599C92.5652 35.4119 92.2472 34.8819 91.0812 34.8819C87.6892 35.9419 84.8272 37.4259 81.9652 39.5459L78.8912 41.7719C78.7852 41.9839 78.6792 42.0899 78.6792 42.1959C78.6792 42.4079 78.7852 42.4079 78.8912 42.4079C79.3152 42.4079 80.0572 42.1959 81.0112 41.5599L84.0852 39.6519C85.2512 38.9099 86.4172 38.4859 87.1592 38.4859C87.6892 38.4859 88.0072 38.6979 88.0072 39.3339C88.0072 39.6519 87.9012 40.1819 87.4772 40.9239L84.0852 47.3899L83.9792 48.2379L84.1912 48.4499C86.2052 48.4499 89.4912 45.0579 90.9752 43.8919L96.4872 39.5459C97.0172 39.2279 97.6532 38.5919 98.1832 38.5919C98.5012 38.5919 98.7132 38.8039 98.8192 39.3339L96.2752 44.4219ZM124.121 44.4219C123.909 45.2699 123.591 45.9059 123.591 46.4359C123.591 46.9659 123.803 47.3899 124.545 47.9199C128.255 47.8139 131.011 45.7999 134.509 43.2559C135.569 42.5139 136.735 41.3479 136.735 40.9239L136.523 40.8179C136.311 40.8179 135.569 41.1359 134.297 41.8779C130.799 43.8919 130.163 44.4219 129.527 44.6339C129.209 44.6339 128.891 44.6339 128.255 44.7399C128.043 44.5279 127.937 44.2099 127.937 43.8919C127.937 42.9379 128.997 41.6659 129.633 40.8179C130.057 39.7579 131.011 38.1679 131.011 36.7899C131.011 36.1539 130.905 35.7299 130.481 35.1999C127.619 35.1999 124.651 37.2139 122.425 39.0159L118.821 41.9839L118.609 41.7719L119.139 40.4999C119.351 39.7579 120.411 37.7439 120.411 36.2599C120.411 35.4119 120.093 34.8819 118.927 34.8819C115.535 35.9419 112.673 37.4259 109.811 39.5459L106.737 41.7719C106.631 41.9839 106.525 42.0899 106.525 42.1959C106.525 42.4079 106.631 42.4079 106.737 42.4079C107.161 42.4079 107.903 42.1959 108.857 41.5599L111.931 39.6519C113.097 38.9099 114.263 38.4859 115.005 38.4859C115.535 38.4859 115.853 38.6979 115.853 39.3339C115.853 39.6519 115.747 40.1819 115.323 40.9239L111.931 47.3899L111.825 48.2379L112.037 48.4499C114.051 48.4499 117.337 45.0579 118.821 43.8919L124.333 39.5459C124.863 39.2279 125.499 38.5919 126.029 38.5919C126.347 38.5919 126.559 38.8039 126.665 39.3339L124.121 44.4219Z" fill="#C85520"/>
</svg>
