<svg width="279" height="196" viewBox="0 0 279 196" fill="none" xmlns="http://www.w3.org/2000/svg">
<g filter="url(#filter0_d)">
<path d="M223.04 10.6316H55.0396C52.2781 10.6316 50.0396 12.7564 50.0396 15.3774V100.803C50.0396 103.424 52.2781 105.548 55.0396 105.548H223.04C225.801 105.548 228.04 103.424 228.04 100.803V15.3774C228.04 12.7564 225.801 10.6316 223.04 10.6316Z" fill="white"/>
<path d="M99.0166 53.373C99.0166 54.3333 98.8742 55.1919 98.5894 55.9487C98.3127 56.6974 97.9139 57.3322 97.3931 57.853C96.8722 58.3739 96.2375 58.7686 95.4888 59.0371C94.7401 59.3057 93.8896 59.4399 92.9375 59.4399C92.0667 59.4399 91.2733 59.3138 90.5571 59.0615C89.841 58.8092 89.2266 58.439 88.7139 57.9507C88.2012 57.4543 87.8065 56.8358 87.5298 56.0952C87.2531 55.3547 87.1147 54.5002 87.1147 53.5317V43.7295C87.1147 43.6644 87.131 43.6074 87.1636 43.5586C87.1961 43.5098 87.2531 43.4731 87.3345 43.4487C87.4159 43.4162 87.5216 43.3918 87.6519 43.3755C87.7821 43.3511 87.953 43.3389 88.1646 43.3389C88.3599 43.3389 88.5267 43.3511 88.665 43.3755C88.8034 43.3918 88.9092 43.4162 88.9824 43.4487C89.0638 43.4731 89.1208 43.5098 89.1533 43.5586C89.1859 43.6074 89.2021 43.6644 89.2021 43.7295V53.2754C89.2021 54.0078 89.2917 54.6466 89.4707 55.1919C89.6497 55.7371 89.9061 56.1929 90.2397 56.5591C90.5815 56.9172 90.9884 57.1898 91.4604 57.377C91.9406 57.556 92.4777 57.6455 93.0718 57.6455C93.6821 57.6455 94.2233 57.556 94.6953 57.377C95.1755 57.1979 95.5783 56.9294 95.9038 56.5713C96.2375 56.2132 96.4897 55.7697 96.6606 55.2407C96.8397 54.7118 96.9292 54.0933 96.9292 53.3853V43.7295C96.9292 43.6644 96.9455 43.6074 96.978 43.5586C97.0106 43.5098 97.0675 43.4731 97.1489 43.4487C97.2303 43.4162 97.3361 43.3918 97.4663 43.3755C97.6047 43.3511 97.7756 43.3389 97.979 43.3389C98.1743 43.3389 98.3371 43.3511 98.4673 43.3755C98.6056 43.3918 98.7114 43.4162 98.7847 43.4487C98.866 43.4731 98.923 43.5098 98.9556 43.5586C98.9963 43.6074 99.0166 43.6644 99.0166 43.7295V53.373ZM112.884 48.0386C112.884 48.828 112.754 49.54 112.493 50.1748C112.233 50.8096 111.858 51.3507 111.37 51.7983C110.89 52.2459 110.296 52.5918 109.588 52.8359C108.888 53.0801 108.05 53.2021 107.073 53.2021H105.279V58.8906C105.279 58.9557 105.258 59.0127 105.218 59.0615C105.185 59.1104 105.128 59.151 105.047 59.1836C104.974 59.208 104.868 59.2284 104.729 59.2446C104.599 59.269 104.432 59.2812 104.229 59.2812C104.026 59.2812 103.855 59.269 103.716 59.2446C103.586 59.2284 103.48 59.208 103.399 59.1836C103.318 59.151 103.261 59.1104 103.228 59.0615C103.195 59.0127 103.179 58.9557 103.179 58.8906V44.3154C103.179 43.9899 103.265 43.758 103.436 43.6196C103.606 43.4813 103.798 43.4121 104.009 43.4121H107.391C107.732 43.4121 108.058 43.4284 108.367 43.4609C108.685 43.4854 109.055 43.5464 109.478 43.644C109.909 43.7336 110.345 43.9085 110.784 44.1689C111.232 44.4212 111.61 44.7345 111.919 45.1089C112.229 45.4832 112.465 45.9186 112.627 46.415C112.798 46.9033 112.884 47.4445 112.884 48.0386ZM110.674 48.2095C110.674 47.5666 110.552 47.0295 110.308 46.5981C110.072 46.1668 109.775 45.8454 109.417 45.6338C109.067 45.4222 108.701 45.2879 108.318 45.231C107.944 45.174 107.578 45.1455 107.22 45.1455H105.279V51.481H107.171C107.806 51.481 108.331 51.3996 108.746 51.2368C109.169 51.0741 109.523 50.8503 109.808 50.5654C110.092 50.2725 110.308 49.9266 110.455 49.5278C110.601 49.1209 110.674 48.6815 110.674 48.2095ZM125.872 44.3154C125.872 44.4701 125.864 44.6043 125.848 44.7183C125.831 44.8322 125.803 44.9258 125.762 44.999C125.73 45.0641 125.685 45.113 125.628 45.1455C125.579 45.1781 125.522 45.1943 125.457 45.1943H121.014V58.8906C121.014 58.9557 120.997 59.0127 120.965 59.0615C120.932 59.1104 120.875 59.151 120.794 59.1836C120.713 59.208 120.603 59.2284 120.464 59.2446C120.334 59.269 120.167 59.2812 119.964 59.2812C119.769 59.2812 119.602 59.269 119.463 59.2446C119.325 59.2284 119.215 59.208 119.134 59.1836C119.052 59.151 118.995 59.1104 118.963 59.0615C118.93 59.0127 118.914 58.9557 118.914 58.8906V45.1943H114.471C114.406 45.1943 114.345 45.1781 114.288 45.1455C114.239 45.113 114.198 45.0641 114.166 44.999C114.133 44.9258 114.104 44.8322 114.08 44.7183C114.064 44.6043 114.056 44.4701 114.056 44.3154C114.056 44.1608 114.064 44.0265 114.08 43.9126C114.104 43.7905 114.133 43.6929 114.166 43.6196C114.198 43.5464 114.239 43.4935 114.288 43.4609C114.345 43.4284 114.406 43.4121 114.471 43.4121H125.457C125.522 43.4121 125.579 43.4284 125.628 43.4609C125.685 43.4935 125.73 43.5464 125.762 43.6196C125.803 43.6929 125.831 43.7905 125.848 43.9126C125.864 44.0265 125.872 44.1608 125.872 44.3154ZM140.679 51.127C140.679 52.4046 140.529 53.5562 140.228 54.5815C139.926 55.6069 139.475 56.4818 138.873 57.2061C138.278 57.9222 137.53 58.4756 136.626 58.8662C135.723 59.2487 134.669 59.4399 133.465 59.4399C132.277 59.4399 131.247 59.265 130.376 58.915C129.514 58.557 128.798 58.0402 128.228 57.3647C127.667 56.6893 127.247 55.8511 126.971 54.8501C126.694 53.8491 126.556 52.6976 126.556 51.3955C126.556 50.1504 126.706 49.0192 127.007 48.002C127.308 46.9847 127.76 46.1221 128.362 45.4141C128.965 44.6979 129.717 44.1486 130.621 43.7661C131.524 43.3755 132.578 43.1802 133.782 43.1802C134.946 43.1802 135.959 43.3551 136.822 43.7051C137.684 44.055 138.401 44.5677 138.97 45.2432C139.548 45.9105 139.975 46.7406 140.252 47.7334C140.537 48.7181 140.679 49.8493 140.679 51.127ZM138.47 51.2734C138.47 50.3783 138.388 49.5482 138.226 48.7832C138.071 48.0101 137.806 47.3428 137.432 46.7812C137.066 46.2116 136.574 45.7681 135.955 45.4507C135.337 45.1333 134.572 44.9746 133.66 44.9746C132.749 44.9746 131.984 45.1455 131.365 45.4873C130.747 45.8291 130.242 46.2848 129.852 46.8545C129.469 47.4242 129.192 48.0915 129.021 48.8564C128.859 49.6133 128.777 50.4108 128.777 51.249C128.777 52.1768 128.855 53.0312 129.009 53.8125C129.164 54.5938 129.424 55.2692 129.791 55.8389C130.157 56.4004 130.645 56.8398 131.255 57.1572C131.874 57.4665 132.647 57.6211 133.575 57.6211C134.494 57.6211 135.267 57.4502 135.894 57.1084C136.521 56.7666 137.025 56.3068 137.408 55.729C137.79 55.1431 138.063 54.4676 138.226 53.7026C138.388 52.9377 138.47 52.1279 138.47 51.2734ZM99.2852 82.0781C99.2852 83.4453 99.1102 84.6416 98.7603 85.667C98.4103 86.6842 97.8976 87.5306 97.2222 88.2061C96.5549 88.8734 95.7329 89.3739 94.7563 89.7075C93.7798 90.0412 92.616 90.208 91.2651 90.208H87.9204C87.7332 90.208 87.5542 90.147 87.3833 90.0249C87.2205 89.8947 87.1392 89.6709 87.1392 89.3535V75.2666C87.1392 74.9492 87.2205 74.7295 87.3833 74.6074C87.5542 74.4772 87.7332 74.4121 87.9204 74.4121H91.4971C92.8643 74.4121 94.0199 74.5911 94.9639 74.9492C95.9079 75.2992 96.6973 75.8078 97.332 76.4751C97.9749 77.1343 98.4591 77.9359 98.7847 78.8799C99.1183 79.8239 99.2852 80.89 99.2852 82.0781ZM97.0757 82.1636C97.0757 81.3091 96.9699 80.5156 96.7583 79.7832C96.5467 79.0426 96.2131 78.4038 95.7573 77.8667C95.3097 77.3296 94.7401 76.9105 94.0483 76.6094C93.3566 76.3083 92.4655 76.1577 91.375 76.1577H89.2388V88.4502H91.3994C92.4085 88.4502 93.259 88.3241 93.9507 88.0718C94.6424 87.8195 95.2202 87.4329 95.6841 86.9121C96.1479 86.3913 96.4938 85.7402 96.7217 84.959C96.9577 84.1696 97.0757 83.2378 97.0757 82.1636ZM104.62 89.8906C104.62 89.9557 104.603 90.0127 104.571 90.0615C104.538 90.1104 104.481 90.151 104.4 90.1836C104.319 90.208 104.209 90.2284 104.07 90.2446C103.94 90.269 103.773 90.2812 103.57 90.2812C103.375 90.2812 103.208 90.269 103.069 90.2446C102.931 90.2284 102.821 90.208 102.74 90.1836C102.658 90.151 102.601 90.1104 102.569 90.0615C102.536 90.0127 102.52 89.9557 102.52 89.8906V74.7295C102.52 74.6644 102.536 74.6074 102.569 74.5586C102.61 74.5098 102.671 74.4731 102.752 74.4487C102.841 74.4162 102.951 74.3918 103.082 74.3755C103.22 74.3511 103.383 74.3389 103.57 74.3389C103.773 74.3389 103.94 74.3511 104.07 74.3755C104.209 74.3918 104.319 74.4162 104.4 74.4487C104.481 74.4731 104.538 74.5098 104.571 74.5586C104.603 74.6074 104.62 74.6644 104.62 74.7295V89.8906ZM117.303 85.7769C117.303 86.5174 117.164 87.1766 116.888 87.7544C116.619 88.3322 116.241 88.8245 115.752 89.2314C115.272 89.6302 114.703 89.9313 114.043 90.1348C113.392 90.3382 112.688 90.4399 111.932 90.4399C111.403 90.4399 110.91 90.3952 110.455 90.3057C110.007 90.2161 109.604 90.1063 109.246 89.9761C108.896 89.8459 108.599 89.7116 108.355 89.5732C108.119 89.4349 107.952 89.3169 107.854 89.2192C107.765 89.1216 107.696 88.9995 107.647 88.853C107.606 88.6984 107.586 88.495 107.586 88.2427C107.586 88.0636 107.594 87.9172 107.61 87.8032C107.627 87.6812 107.651 87.5835 107.684 87.5103C107.716 87.437 107.757 87.3882 107.806 87.3638C107.854 87.3312 107.911 87.3149 107.977 87.3149C108.09 87.3149 108.249 87.3841 108.453 87.5225C108.664 87.6608 108.933 87.8114 109.258 87.9741C109.584 88.1369 109.974 88.2915 110.43 88.438C110.894 88.5763 111.427 88.6455 112.029 88.6455C112.485 88.6455 112.9 88.5845 113.274 88.4624C113.657 88.3403 113.982 88.1694 114.251 87.9497C114.528 87.7218 114.739 87.4451 114.886 87.1196C115.032 86.7941 115.105 86.4238 115.105 86.0088C115.105 85.5612 115.004 85.1787 114.8 84.8613C114.597 84.5439 114.328 84.2673 113.995 84.0312C113.661 83.7871 113.278 83.5674 112.847 83.3721C112.424 83.1686 111.989 82.9652 111.541 82.7617C111.093 82.5501 110.658 82.3182 110.235 82.0659C109.812 81.8136 109.433 81.5166 109.1 81.1748C108.766 80.833 108.493 80.4342 108.282 79.9785C108.078 79.5146 107.977 78.9613 107.977 78.3184C107.977 77.6592 108.095 77.0732 108.331 76.5605C108.575 76.0397 108.908 75.6043 109.332 75.2544C109.763 74.9045 110.271 74.64 110.857 74.4609C111.451 74.2738 112.09 74.1802 112.774 74.1802C113.124 74.1802 113.474 74.2127 113.824 74.2778C114.182 74.3348 114.515 74.4162 114.825 74.522C115.142 74.6196 115.423 74.7336 115.667 74.8638C115.911 74.9858 116.07 75.0876 116.143 75.1689C116.224 75.2422 116.277 75.3032 116.302 75.3521C116.326 75.3927 116.347 75.4497 116.363 75.5229C116.379 75.5881 116.391 75.6694 116.399 75.7671C116.408 75.8647 116.412 75.9909 116.412 76.1455C116.412 76.292 116.403 76.4222 116.387 76.5361C116.379 76.6501 116.363 76.7477 116.338 76.8291C116.314 76.9023 116.277 76.9593 116.229 77C116.188 77.0326 116.139 77.0488 116.082 77.0488C115.993 77.0488 115.85 76.9919 115.655 76.8779C115.468 76.764 115.236 76.6379 114.959 76.4995C114.682 76.353 114.353 76.2228 113.97 76.1089C113.596 75.9868 113.173 75.9258 112.701 75.9258C112.261 75.9258 111.879 75.9868 111.553 76.1089C111.228 76.2228 110.959 76.3774 110.748 76.5728C110.536 76.7681 110.377 77 110.271 77.2686C110.166 77.5371 110.113 77.8219 110.113 78.123C110.113 78.5625 110.215 78.9409 110.418 79.2583C110.621 79.5757 110.89 79.8564 111.224 80.1006C111.565 80.3447 111.952 80.5685 112.383 80.772C112.815 80.9754 113.254 81.1829 113.702 81.3945C114.149 81.598 114.589 81.8258 115.02 82.0781C115.451 82.3223 115.834 82.6152 116.167 82.957C116.509 83.2907 116.782 83.6895 116.985 84.1533C117.197 84.609 117.303 85.1502 117.303 85.7769ZM130.865 87.9741C130.865 88.1043 130.861 88.2183 130.853 88.3159C130.844 88.4136 130.828 88.499 130.804 88.5723C130.787 88.6455 130.763 88.7106 130.73 88.7676C130.698 88.8245 130.641 88.8937 130.56 88.9751C130.478 89.0565 130.307 89.1826 130.047 89.3535C129.786 89.5163 129.461 89.679 129.07 89.8418C128.688 89.9964 128.244 90.1266 127.74 90.2324C127.243 90.3464 126.698 90.4033 126.104 90.4033C125.079 90.4033 124.151 90.2324 123.321 89.8906C122.499 89.5488 121.795 89.0443 121.209 88.377C120.631 87.7096 120.184 86.8877 119.866 85.9111C119.557 84.9264 119.402 83.7952 119.402 82.5176C119.402 81.2074 119.569 80.0396 119.903 79.0142C120.245 77.9888 120.721 77.1221 121.331 76.4141C121.941 75.6979 122.67 75.1527 123.516 74.7783C124.371 74.404 125.315 74.2168 126.348 74.2168C126.804 74.2168 127.247 74.2616 127.679 74.3511C128.11 74.4325 128.509 74.5382 128.875 74.6685C129.241 74.7987 129.567 74.9492 129.852 75.1201C130.136 75.291 130.332 75.4334 130.438 75.5474C130.551 75.6532 130.625 75.7345 130.657 75.7915C130.69 75.8485 130.714 75.9176 130.73 75.999C130.755 76.0723 130.771 76.1618 130.779 76.2676C130.796 76.3734 130.804 76.4995 130.804 76.646C130.804 76.8088 130.796 76.9471 130.779 77.061C130.763 77.175 130.739 77.2726 130.706 77.354C130.674 77.4272 130.633 77.4842 130.584 77.5249C130.543 77.5575 130.49 77.5737 130.425 77.5737C130.311 77.5737 130.153 77.4964 129.949 77.3418C129.746 77.179 129.481 77.0041 129.156 76.8169C128.838 76.6216 128.448 76.4466 127.984 76.292C127.528 76.1292 126.979 76.0479 126.336 76.0479C125.636 76.0479 124.997 76.1903 124.419 76.4751C123.85 76.7518 123.361 77.1628 122.955 77.708C122.548 78.2533 122.23 78.9206 122.002 79.71C121.783 80.4912 121.673 81.3864 121.673 82.3955C121.673 83.3965 121.779 84.2835 121.99 85.0566C122.21 85.8216 122.519 86.4645 122.918 86.9854C123.325 87.498 123.821 87.8887 124.407 88.1572C124.993 88.4176 125.656 88.5479 126.397 88.5479C127.024 88.5479 127.569 88.4705 128.033 88.3159C128.505 88.1613 128.903 87.9904 129.229 87.8032C129.563 87.6079 129.835 87.4329 130.047 87.2783C130.258 87.1237 130.425 87.0464 130.547 87.0464C130.604 87.0464 130.653 87.0586 130.694 87.083C130.735 87.1074 130.767 87.1562 130.792 87.2295C130.816 87.2946 130.832 87.3882 130.84 87.5103C130.857 87.6323 130.865 87.7869 130.865 87.9741ZM146.661 82.127C146.661 83.4046 146.51 84.5562 146.209 85.5815C145.908 86.6069 145.456 87.4818 144.854 88.2061C144.26 88.9222 143.511 89.4756 142.608 89.8662C141.705 90.2487 140.651 90.4399 139.446 90.4399C138.258 90.4399 137.229 90.265 136.358 89.915C135.495 89.557 134.779 89.0402 134.209 88.3647C133.648 87.6893 133.229 86.8511 132.952 85.8501C132.675 84.8491 132.537 83.6976 132.537 82.3955C132.537 81.1504 132.688 80.0192 132.989 79.002C133.29 77.9847 133.742 77.1221 134.344 76.4141C134.946 75.6979 135.699 75.1486 136.602 74.7661C137.505 74.3755 138.559 74.1802 139.764 74.1802C140.927 74.1802 141.941 74.3551 142.803 74.7051C143.666 75.055 144.382 75.5677 144.952 76.2432C145.529 76.9105 145.957 77.7406 146.233 78.7334C146.518 79.7181 146.661 80.8493 146.661 82.127ZM144.451 82.2734C144.451 81.3783 144.37 80.5482 144.207 79.7832C144.052 79.0101 143.788 78.3428 143.414 77.7812C143.047 77.2116 142.555 76.7681 141.937 76.4507C141.318 76.1333 140.553 75.9746 139.642 75.9746C138.73 75.9746 137.965 76.1455 137.347 76.4873C136.728 76.8291 136.224 77.2848 135.833 77.8545C135.451 78.4242 135.174 79.0915 135.003 79.8564C134.84 80.6133 134.759 81.4108 134.759 82.249C134.759 83.1768 134.836 84.0312 134.991 84.8125C135.145 85.5938 135.406 86.2692 135.772 86.8389C136.138 87.4004 136.626 87.8398 137.237 88.1572C137.855 88.4665 138.628 88.6211 139.556 88.6211C140.476 88.6211 141.249 88.4502 141.875 88.1084C142.502 87.7666 143.007 87.3068 143.389 86.729C143.772 86.1431 144.044 85.4676 144.207 84.7026C144.37 83.9377 144.451 83.1279 144.451 82.2734ZM161.858 84.373C161.858 85.3333 161.716 86.1919 161.431 86.9487C161.154 87.6974 160.756 88.3322 160.235 88.853C159.714 89.3739 159.079 89.7686 158.331 90.0371C157.582 90.3057 156.731 90.4399 155.779 90.4399C154.909 90.4399 154.115 90.3138 153.399 90.0615C152.683 89.8092 152.068 89.439 151.556 88.9507C151.043 88.4543 150.648 87.8358 150.372 87.0952C150.095 86.3547 149.957 85.5002 149.957 84.5317V74.7295C149.957 74.6644 149.973 74.6074 150.005 74.5586C150.038 74.5098 150.095 74.4731 150.176 74.4487C150.258 74.4162 150.363 74.3918 150.494 74.3755C150.624 74.3511 150.795 74.3389 151.006 74.3389C151.202 74.3389 151.368 74.3511 151.507 74.3755C151.645 74.3918 151.751 74.4162 151.824 74.4487C151.906 74.4731 151.963 74.5098 151.995 74.5586C152.028 74.6074 152.044 74.6644 152.044 74.7295V84.2754C152.044 85.0078 152.133 85.6466 152.312 86.1919C152.492 86.7371 152.748 87.1929 153.082 87.5591C153.423 87.9172 153.83 88.1898 154.302 88.377C154.782 88.556 155.319 88.6455 155.914 88.6455C156.524 88.6455 157.065 88.556 157.537 88.377C158.017 88.1979 158.42 87.9294 158.746 87.5713C159.079 87.2132 159.332 86.7697 159.502 86.2407C159.681 85.7118 159.771 85.0933 159.771 84.3853V74.7295C159.771 74.6644 159.787 74.6074 159.82 74.5586C159.852 74.5098 159.909 74.4731 159.991 74.4487C160.072 74.4162 160.178 74.3918 160.308 74.3755C160.446 74.3511 160.617 74.3389 160.821 74.3389C161.016 74.3389 161.179 74.3511 161.309 74.3755C161.447 74.3918 161.553 74.4162 161.626 74.4487C161.708 74.4731 161.765 74.5098 161.797 74.5586C161.838 74.6074 161.858 74.6644 161.858 74.7295V84.373ZM177.959 89.3413C177.959 89.5041 177.931 89.6424 177.874 89.7563C177.825 89.8703 177.756 89.9639 177.667 90.0371C177.585 90.1104 177.492 90.1632 177.386 90.1958C177.28 90.2284 177.174 90.2446 177.068 90.2446H176.397C176.185 90.2446 175.998 90.2243 175.835 90.1836C175.681 90.1348 175.53 90.0534 175.384 89.9395C175.245 89.8174 175.103 89.6546 174.957 89.4512C174.818 89.2477 174.664 88.9873 174.493 88.6699L169.512 79.6855C169.252 79.2217 168.987 78.7375 168.719 78.2329C168.458 77.7202 168.214 77.2238 167.986 76.7437H167.962C167.978 77.3296 167.99 77.9277 167.999 78.5381C168.007 79.1484 168.011 79.7547 168.011 80.3569V89.8906C168.011 89.9476 167.994 90.0046 167.962 90.0615C167.929 90.1104 167.872 90.151 167.791 90.1836C167.718 90.208 167.616 90.2284 167.486 90.2446C167.364 90.269 167.205 90.2812 167.01 90.2812C166.814 90.2812 166.652 90.269 166.521 90.2446C166.399 90.2284 166.302 90.208 166.229 90.1836C166.155 90.151 166.102 90.1104 166.07 90.0615C166.037 90.0046 166.021 89.9476 166.021 89.8906V75.3154C166.021 74.9899 166.111 74.758 166.29 74.6196C166.469 74.4813 166.664 74.4121 166.875 74.4121H167.876C168.112 74.4121 168.308 74.4325 168.462 74.4731C168.625 74.5138 168.768 74.583 168.89 74.6807C169.02 74.7702 169.142 74.9004 169.256 75.0713C169.378 75.234 169.508 75.4416 169.646 75.6938L173.479 82.6274C173.715 83.0506 173.943 83.4657 174.163 83.8726C174.383 84.2713 174.594 84.666 174.798 85.0566C175.001 85.4473 175.201 85.8338 175.396 86.2163C175.599 86.5907 175.799 86.9691 175.994 87.3516H176.006C175.99 86.7087 175.978 86.0413 175.97 85.3496C175.97 84.6497 175.97 83.9784 175.97 83.3354V74.7661C175.97 74.7091 175.986 74.6562 176.019 74.6074C176.051 74.5586 176.104 74.5179 176.177 74.4854C176.259 74.4447 176.36 74.4162 176.482 74.3999C176.613 74.3836 176.779 74.3755 176.983 74.3755C177.162 74.3755 177.317 74.3836 177.447 74.3999C177.577 74.4162 177.679 74.4447 177.752 74.4854C177.825 74.5179 177.878 74.5586 177.911 74.6074C177.943 74.6562 177.959 74.7091 177.959 74.7661V89.3413ZM192.059 75.3154C192.059 75.4701 192.05 75.6043 192.034 75.7183C192.018 75.8322 191.989 75.9258 191.949 75.999C191.916 76.0641 191.871 76.113 191.814 76.1455C191.766 76.1781 191.709 76.1943 191.644 76.1943H187.2V89.8906C187.2 89.9557 187.184 90.0127 187.151 90.0615C187.119 90.1104 187.062 90.151 186.98 90.1836C186.899 90.208 186.789 90.2284 186.651 90.2446C186.521 90.269 186.354 90.2812 186.15 90.2812C185.955 90.2812 185.788 90.269 185.65 90.2446C185.512 90.2284 185.402 90.208 185.32 90.1836C185.239 90.151 185.182 90.1104 185.149 90.0615C185.117 90.0127 185.101 89.9557 185.101 89.8906V76.1943H180.657C180.592 76.1943 180.531 76.1781 180.474 76.1455C180.425 76.113 180.385 76.0641 180.352 75.999C180.319 75.9258 180.291 75.8322 180.267 75.7183C180.25 75.6043 180.242 75.4701 180.242 75.3154C180.242 75.1608 180.25 75.0265 180.267 74.9126C180.291 74.7905 180.319 74.6929 180.352 74.6196C180.385 74.5464 180.425 74.4935 180.474 74.4609C180.531 74.4284 180.592 74.4121 180.657 74.4121H191.644C191.709 74.4121 191.766 74.4284 191.814 74.4609C191.871 74.4935 191.916 74.5464 191.949 74.6196C191.989 74.6929 192.018 74.7905 192.034 74.9126C192.05 75.0265 192.059 75.1608 192.059 75.3154Z" fill="black"/>
<path d="M159.515 54.7158C159.515 54.9844 159.474 55.196 159.393 55.3506C159.311 55.5052 159.197 55.5825 159.051 55.5825H157.269V58.9028C157.269 58.9679 157.252 59.0249 157.22 59.0737C157.187 59.1144 157.13 59.151 157.049 59.1836C156.967 59.2161 156.862 59.2406 156.731 59.2568C156.601 59.2731 156.434 59.2812 156.231 59.2812C156.036 59.2812 155.873 59.2731 155.743 59.2568C155.612 59.2406 155.507 59.2161 155.425 59.1836C155.352 59.151 155.299 59.1144 155.267 59.0737C155.242 59.0249 155.23 58.9679 155.23 58.9028V55.5825H148.711C148.614 55.5825 148.532 55.5703 148.467 55.5459C148.402 55.5215 148.341 55.4767 148.284 55.4116C148.235 55.3465 148.199 55.2529 148.174 55.1309C148.158 55.0088 148.15 54.8501 148.15 54.6548C148.15 54.5002 148.154 54.3618 148.162 54.2397C148.17 54.1177 148.187 54.0078 148.211 53.9102C148.235 53.8044 148.268 53.7067 148.309 53.6172C148.349 53.5195 148.398 53.4178 148.455 53.312L154.144 43.7173C154.184 43.6522 154.241 43.5952 154.314 43.5464C154.396 43.4976 154.498 43.4569 154.62 43.4243C154.742 43.3918 154.892 43.3714 155.071 43.3633C155.25 43.347 155.462 43.3389 155.706 43.3389C155.975 43.3389 156.207 43.3511 156.402 43.3755C156.605 43.3918 156.768 43.4162 156.89 43.4487C157.012 43.4813 157.106 43.526 157.171 43.583C157.236 43.6318 157.269 43.6929 157.269 43.7661V53.8491H159.051C159.189 53.8491 159.299 53.9224 159.38 54.0688C159.47 54.2072 159.515 54.4229 159.515 54.7158ZM155.23 45.1821H155.206L150.066 53.8491H155.23V45.1821ZM172.039 51.2734C172.039 52.486 171.941 53.5928 171.746 54.5938C171.559 55.5947 171.242 56.4574 170.794 57.1816C170.354 57.8978 169.777 58.4552 169.061 58.854C168.344 59.2446 167.461 59.4399 166.412 59.4399C165.419 59.4399 164.581 59.265 163.897 58.915C163.222 58.557 162.676 58.0361 162.261 57.3525C161.846 56.6608 161.549 55.8145 161.37 54.8135C161.199 53.8044 161.114 52.6488 161.114 51.3467C161.114 50.1423 161.211 49.0396 161.407 48.0386C161.602 47.0295 161.919 46.1668 162.359 45.4507C162.798 44.7264 163.376 44.1689 164.092 43.7783C164.808 43.3796 165.687 43.1802 166.729 43.1802C167.73 43.1802 168.568 43.3592 169.244 43.7173C169.927 44.0672 170.477 44.5881 170.892 45.2798C171.307 45.9634 171.6 46.8097 171.771 47.8188C171.95 48.8198 172.039 49.9714 172.039 51.2734ZM169.891 51.4199C169.891 50.6305 169.862 49.9225 169.805 49.2959C169.748 48.6693 169.663 48.1159 169.549 47.6357C169.443 47.1556 169.301 46.7446 169.122 46.4028C168.951 46.0529 168.743 45.7681 168.499 45.5483C168.255 45.3205 167.974 45.1577 167.657 45.0601C167.347 44.9543 166.998 44.9014 166.607 44.9014C165.915 44.9014 165.354 45.0641 164.922 45.3896C164.491 45.7152 164.149 46.1628 163.897 46.7324C163.653 47.3021 163.486 47.9694 163.396 48.7344C163.307 49.4993 163.262 50.3213 163.262 51.2002C163.262 52.3802 163.323 53.3853 163.445 54.2153C163.567 55.0373 163.759 55.7087 164.019 56.2295C164.288 56.7503 164.625 57.1287 165.032 57.3647C165.447 57.6007 165.948 57.7188 166.534 57.7188C166.989 57.7188 167.388 57.6455 167.73 57.499C168.08 57.3525 168.377 57.145 168.621 56.8765C168.873 56.5998 169.081 56.2702 169.244 55.8877C169.406 55.5052 169.537 55.082 169.634 54.6182C169.732 54.1543 169.797 53.6538 169.83 53.1167C169.87 52.5715 169.891 52.0059 169.891 51.4199ZM180.584 47.3184C180.584 47.945 180.515 48.5146 180.376 49.0273C180.238 49.54 180.027 49.9795 179.742 50.3457C179.457 50.7038 179.095 50.9845 178.655 51.188C178.224 51.3914 177.715 51.4932 177.129 51.4932C176.535 51.4932 176.027 51.3996 175.604 51.2124C175.18 51.0252 174.834 50.7567 174.566 50.4067C174.297 50.0487 174.098 49.6174 173.968 49.1128C173.846 48.6001 173.785 48.0182 173.785 47.3672C173.785 46.7731 173.85 46.2238 173.98 45.7192C174.118 45.2147 174.326 44.7793 174.603 44.4131C174.879 44.0469 175.233 43.758 175.665 43.5464C176.104 43.3348 176.621 43.229 177.215 43.229C177.858 43.229 178.395 43.3389 178.826 43.5586C179.266 43.7783 179.616 44.0754 179.876 44.4497C180.136 44.8159 180.319 45.2472 180.425 45.7437C180.531 46.2401 180.584 46.765 180.584 47.3184ZM178.875 47.3794C178.875 46.9237 178.842 46.5208 178.777 46.1709C178.712 45.8128 178.611 45.5158 178.472 45.2798C178.342 45.0438 178.167 44.8688 177.947 44.7549C177.728 44.6328 177.467 44.5718 177.166 44.5718C176.881 44.5718 176.633 44.6287 176.421 44.7427C176.21 44.8566 176.035 45.0275 175.896 45.2554C175.766 45.4832 175.669 45.7681 175.604 46.1099C175.538 46.4435 175.506 46.8382 175.506 47.2939C175.506 47.8473 175.542 48.3112 175.616 48.6855C175.697 49.0518 175.807 49.3447 175.945 49.5645C176.092 49.776 176.271 49.9266 176.482 50.0161C176.702 50.0975 176.95 50.1382 177.227 50.1382C177.553 50.1382 177.817 50.0771 178.021 49.9551C178.232 49.833 178.399 49.654 178.521 49.418C178.651 49.1738 178.741 48.8849 178.79 48.5513C178.847 48.2095 178.875 47.8188 178.875 47.3794ZM189.898 55.2163C189.898 55.8429 189.829 56.4126 189.69 56.9253C189.552 57.438 189.34 57.8774 189.056 58.2437C188.771 58.6017 188.409 58.8825 187.969 59.0859C187.538 59.2894 187.029 59.3911 186.443 59.3911C185.849 59.3911 185.341 59.2975 184.917 59.1104C184.494 58.9232 184.148 58.6546 183.88 58.3047C183.611 57.9466 183.412 57.5153 183.282 57.0107C183.16 56.498 183.099 55.9162 183.099 55.2651C183.099 54.6711 183.164 54.1217 183.294 53.6172C183.432 53.1126 183.64 52.6772 183.917 52.311C184.193 51.9448 184.547 51.6559 184.979 51.4443C185.418 51.2327 185.935 51.127 186.529 51.127C187.172 51.127 187.709 51.2368 188.14 51.4565C188.58 51.6763 188.93 51.9733 189.19 52.3477C189.45 52.7139 189.633 53.1452 189.739 53.6416C189.845 54.138 189.898 54.6629 189.898 55.2163ZM188.189 55.2773C188.189 54.8216 188.156 54.4188 188.091 54.0688C188.026 53.7108 187.924 53.4137 187.786 53.1777C187.656 52.9417 187.481 52.7668 187.261 52.6528C187.042 52.5308 186.781 52.4697 186.48 52.4697C186.195 52.4697 185.947 52.5267 185.735 52.6406C185.524 52.7546 185.349 52.9255 185.21 53.1533C185.08 53.3812 184.983 53.666 184.917 54.0078C184.852 54.3415 184.82 54.7362 184.82 55.1919C184.82 55.7453 184.856 56.2091 184.93 56.5835C185.011 56.9497 185.121 57.2427 185.259 57.4624C185.406 57.674 185.585 57.8245 185.796 57.9141C186.016 57.9954 186.264 58.0361 186.541 58.0361C186.867 58.0361 187.131 57.9751 187.334 57.853C187.546 57.731 187.713 57.5519 187.835 57.3159C187.965 57.0718 188.055 56.7829 188.104 56.4492C188.16 56.1074 188.189 55.7168 188.189 55.2773ZM177.129 59.3057C177.089 59.3789 177.04 59.4318 176.983 59.4644C176.926 59.505 176.857 59.5376 176.775 59.562C176.694 59.5946 176.596 59.6149 176.482 59.623C176.368 59.6393 176.23 59.6475 176.067 59.6475C175.888 59.6475 175.742 59.6312 175.628 59.5986C175.522 59.5661 175.445 59.5213 175.396 59.4644C175.355 59.4155 175.339 59.3504 175.347 59.269C175.363 59.1958 175.404 59.1104 175.469 59.0127L186.456 43.2778C186.496 43.2127 186.545 43.1598 186.602 43.1191C186.659 43.0703 186.728 43.0337 186.81 43.0093C186.899 42.9849 186.997 42.9686 187.103 42.9604C187.216 42.9442 187.359 42.936 187.53 42.936C187.701 42.936 187.839 42.9523 187.945 42.9849C188.059 43.0093 188.14 43.05 188.189 43.1069C188.238 43.1639 188.254 43.2331 188.238 43.3145C188.23 43.3958 188.193 43.4813 188.128 43.5708L177.129 59.3057Z" fill="#FF0000"/>
</g>
<defs>
<filter id="filter0_d" x="0.0395508" y="0.631592" width="278" height="194.917" filterUnits="userSpaceOnUse" color-interpolation-filters="sRGB">
<feFlood flood-opacity="0" result="BackgroundImageFix"/>
<feColorMatrix in="SourceAlpha" type="matrix" values="0 0 0 0 0 0 0 0 0 0 0 0 0 0 0 0 0 0 127 0"/>
<feOffset dy="40"/>
<feGaussianBlur stdDeviation="25"/>
<feColorMatrix type="matrix" values="0 0 0 0 0 0 0 0 0 0 0 0 0 0 0 0 0 0 0.1 0"/>
<feBlend mode="normal" in2="BackgroundImageFix" result="effect1_dropShadow"/>
<feBlend mode="normal" in="SourceGraphic" in2="effect1_dropShadow" result="shape"/>
</filter>
</defs>
</svg>
